<svg width="141" height="44" viewBox="0 0 141 44" fill="none" xmlns="http://www.w3.org/2000/svg">
<path d="M22.5734 29.7593C22.5734 24.7386 26.6366 20.722 31.6027 20.722H34.9436C37.7427 20.722 40 18.4398 40 15.61H31.6027C30.8804 15.61 30.158 15.7012 29.526 15.7925C27.991 15.9751 27.5395 13.7842 28.9842 13.3278C29.7968 13.0539 30.6998 12.9627 31.6027 12.9627H34.9436C37.7427 12.9627 40 10.6805 40 7.85063H31.6027C30.6998 7.85063 29.8871 7.94192 29.0745 8.12449C27.6298 8.39835 26.9977 6.29876 28.4424 5.75104C29.4357 5.3859 30.5192 5.11204 31.693 5.11204H34.9436C37.7427 5.11204 40 2.82988 40 0H31.693C23.9278 0 17.4266 6.29876 17.5169 14.0581C17.6072 19.1701 13.544 23.278 8.48759 23.278H5.32731C2.52822 23.278 0.270881 25.5602 0.270881 28.39H8.39729C9.30023 28.39 10.1129 28.2988 10.9255 28.1162C12.3702 27.8423 13.0023 29.9419 11.5576 30.4896C10.5643 30.8548 9.48081 31.1286 8.307 31.1286H5.14673C2.34763 31.1286 0.0902929 33.4108 0.0902929 36.2407H8.2167C8.93905 36.2407 9.6614 36.1494 10.2935 36.0581C11.8284 35.8755 12.2799 38.0664 10.8352 38.5228C10.0226 38.7967 9.11964 38.888 8.2167 38.888H5.05643C2.25734 38.888 0 41.1701 0 44H8.12641C16.2528 44 22.5734 37.61 22.5734 29.7593Z" fill="#7F56D9"/>
<g clip-path="url(#clip0_0_2011)">
<path d="M48.75 28V16.3636H53.7955C54.6818 16.3636 55.4261 16.483 56.0284 16.7216C56.6345 16.9602 57.0909 17.2973 57.3977 17.733C57.7083 18.1686 57.8636 18.6818 57.8636 19.2727C57.8636 19.7008 57.7689 20.0909 57.5795 20.4432C57.3939 20.7955 57.1326 21.0909 56.7955 21.3295C56.4583 21.5644 56.0644 21.7273 55.6136 21.8182V21.9318C56.1136 21.9508 56.5682 22.0777 56.9773 22.3125C57.3864 22.5436 57.7121 22.8636 57.9545 23.2727C58.197 23.678 58.3182 24.1553 58.3182 24.7045C58.3182 25.3409 58.1515 25.9072 57.8182 26.4034C57.4886 26.8996 57.0189 27.2898 56.4091 27.5739C55.7992 27.858 55.072 28 54.2273 28H48.75ZM51.9091 25.4773H53.3864C53.9167 25.4773 54.3144 25.3788 54.5795 25.1818C54.8447 24.9811 54.9773 24.6856 54.9773 24.2955C54.9773 24.0227 54.9148 23.7917 54.7898 23.6023C54.6648 23.4129 54.4867 23.2689 54.2557 23.1705C54.0284 23.072 53.7538 23.0227 53.4318 23.0227H51.9091V25.4773ZM51.9091 21.0682H53.2045C53.4811 21.0682 53.7254 21.0246 53.9375 20.9375C54.1496 20.8504 54.3144 20.7254 54.4318 20.5625C54.553 20.3958 54.6136 20.1932 54.6136 19.9545C54.6136 19.5947 54.4848 19.3201 54.2273 19.1307C53.9697 18.9375 53.6439 18.8409 53.25 18.8409H51.9091V21.0682ZM59.483 28V19.2727H62.5284V20.9318H62.6193C62.7784 20.3182 63.0303 19.8693 63.375 19.5852C63.7235 19.3011 64.1307 19.1591 64.5966 19.1591C64.733 19.1591 64.8674 19.1705 65 19.1932C65.1364 19.2121 65.267 19.2405 65.392 19.2784V21.9545C65.2367 21.9015 65.0455 21.8617 64.8182 21.8352C64.5909 21.8087 64.3958 21.7955 64.233 21.7955C63.9261 21.7955 63.6496 21.8655 63.4034 22.0057C63.161 22.142 62.9697 22.3352 62.8295 22.5852C62.6894 22.8314 62.6193 23.1212 62.6193 23.4545V28H59.483ZM68.446 28.1364C67.8892 28.1364 67.3968 28.0455 66.9688 27.8636C66.5445 27.678 66.2112 27.3977 65.9688 27.0227C65.7263 26.6477 65.6051 26.1705 65.6051 25.5909C65.6051 25.1136 65.6866 24.7064 65.8494 24.3693C66.0123 24.0284 66.2396 23.75 66.5312 23.5341C66.8229 23.3182 67.1619 23.1534 67.5483 23.0398C67.9384 22.9261 68.3589 22.8523 68.8097 22.8182C69.2983 22.7803 69.6903 22.7348 69.9858 22.6818C70.285 22.625 70.5009 22.5473 70.6335 22.4489C70.7661 22.3466 70.8324 22.2121 70.8324 22.0455V22.0227C70.8324 21.7955 70.7453 21.6212 70.571 21.5C70.3968 21.3788 70.1733 21.3182 69.9006 21.3182C69.6013 21.3182 69.357 21.3845 69.1676 21.517C68.982 21.6458 68.8703 21.8447 68.8324 22.1136H65.946C65.9839 21.5833 66.1525 21.0947 66.4517 20.6477C66.7547 20.197 67.196 19.8371 67.7756 19.5682C68.3551 19.2955 69.0786 19.1591 69.946 19.1591C70.571 19.1591 71.1316 19.233 71.6278 19.3807C72.1241 19.5246 72.5464 19.7273 72.8949 19.9886C73.2434 20.2462 73.5085 20.5492 73.6903 20.8977C73.8759 21.2424 73.9688 21.6174 73.9688 22.0227V28H71.0369V26.7727H70.9688C70.7945 27.0985 70.5824 27.3617 70.3324 27.5625C70.0862 27.7633 69.804 27.9091 69.4858 28C69.1714 28.0909 68.8248 28.1364 68.446 28.1364ZM69.4688 26.1591C69.7074 26.1591 69.9309 26.1098 70.1392 26.0114C70.3513 25.9129 70.5237 25.7708 70.6562 25.5852C70.7888 25.3996 70.8551 25.1742 70.8551 24.9091V24.1818C70.7718 24.2159 70.6828 24.2481 70.5881 24.2784C70.4972 24.3087 70.3987 24.3371 70.2926 24.3636C70.1903 24.3902 70.0805 24.4148 69.9631 24.4375C69.8494 24.4602 69.7301 24.4811 69.6051 24.5C69.3627 24.5379 69.1638 24.6004 69.0085 24.6875C68.857 24.7708 68.7434 24.875 68.6676 25C68.5956 25.1212 68.5597 25.2576 68.5597 25.4091C68.5597 25.6515 68.6449 25.8371 68.8153 25.9659C68.9858 26.0947 69.2036 26.1591 69.4688 26.1591ZM78.6037 23.0909V28H75.4673V19.2727H78.4446V20.9318H78.5355C78.7249 20.3788 79.0582 19.9451 79.5355 19.6307C80.0166 19.3163 80.5772 19.1591 81.2173 19.1591C81.8348 19.1591 82.3707 19.3011 82.8253 19.5852C83.2836 19.8655 83.6378 20.2519 83.8878 20.7443C84.1416 21.2367 84.2666 21.7992 84.2628 22.4318V28H81.1264V23.0909C81.1302 22.6591 81.0204 22.3201 80.7969 22.0739C80.5772 21.8277 80.2704 21.7045 79.8764 21.7045C79.6188 21.7045 79.3935 21.7614 79.2003 21.875C79.0109 21.9848 78.8651 22.1439 78.7628 22.3523C78.6605 22.5568 78.6075 22.803 78.6037 23.0909ZM88.9702 28.1136C88.349 28.1136 87.777 27.9508 87.2543 27.625C86.7353 27.2992 86.3187 26.8049 86.0043 26.142C85.6937 25.4792 85.5384 24.6439 85.5384 23.6364C85.5384 22.5833 85.7012 21.7273 86.027 21.0682C86.3565 20.4091 86.7808 19.9261 87.2997 19.6193C87.8224 19.3125 88.3717 19.1591 88.9474 19.1591C89.3793 19.1591 89.758 19.2348 90.0838 19.3864C90.4096 19.5341 90.6823 19.733 90.902 19.983C91.1217 20.2292 91.2884 20.5 91.402 20.7955H91.4474V16.3636H94.5838V28H91.4702V26.5682H91.402C91.2808 26.8636 91.1065 27.1288 90.8793 27.3636C90.6558 27.5947 90.383 27.7784 90.0611 27.9148C89.7429 28.0473 89.3793 28.1136 88.9702 28.1136ZM90.1293 25.7045C90.4171 25.7045 90.6634 25.6212 90.8679 25.4545C91.0762 25.2841 91.2353 25.0455 91.3452 24.7386C91.4588 24.428 91.5156 24.0606 91.5156 23.6364C91.5156 23.2045 91.4588 22.8352 91.3452 22.5284C91.2353 22.2178 91.0762 21.9811 90.8679 21.8182C90.6634 21.6515 90.4171 21.5682 90.1293 21.5682C89.8414 21.5682 89.5952 21.6515 89.3906 21.8182C89.1899 21.9811 89.0346 22.2178 88.9247 22.5284C88.8187 22.8352 88.7656 23.2045 88.7656 23.6364C88.7656 24.0682 88.8187 24.4394 88.9247 24.75C89.0346 25.0568 89.1899 25.2936 89.3906 25.4602C89.5952 25.6231 89.8414 25.7045 90.1293 25.7045ZM96.1236 28V19.2727H99.2599V28H96.1236ZM97.6918 18.3636C97.2675 18.3636 96.9039 18.2235 96.6009 17.9432C96.2978 17.6629 96.1463 17.3258 96.1463 16.9318C96.1463 16.5379 96.2978 16.2008 96.6009 15.9205C96.9039 15.6402 97.2675 15.5 97.6918 15.5C98.1198 15.5 98.4834 15.6402 98.7827 15.9205C99.0857 16.2008 99.2372 16.5379 99.2372 16.9318C99.2372 17.3258 99.0857 17.6629 98.7827 17.9432C98.4834 18.2235 98.1198 18.3636 97.6918 18.3636ZM103.994 23.0909V28H100.858V19.2727H103.835V20.9318H103.926C104.116 20.3788 104.449 19.9451 104.926 19.6307C105.407 19.3163 105.968 19.1591 106.608 19.1591C107.225 19.1591 107.761 19.3011 108.216 19.5852C108.674 19.8655 109.028 20.2519 109.278 20.7443C109.532 21.2367 109.657 21.7992 109.653 22.4318V28H106.517V23.0909C106.521 22.6591 106.411 22.3201 106.188 22.0739C105.968 21.8277 105.661 21.7045 105.267 21.7045C105.009 21.7045 104.784 21.7614 104.591 21.875C104.402 21.9848 104.256 22.1439 104.153 22.3523C104.051 22.5568 103.998 22.803 103.994 23.0909ZM115.406 31.4545C114.531 31.4545 113.781 31.3295 113.156 31.0795C112.535 30.8333 112.052 30.4924 111.707 30.0568C111.366 29.625 111.175 29.1288 111.134 28.5682H114.156C114.187 28.7538 114.262 28.9034 114.384 29.017C114.505 29.1307 114.66 29.2121 114.849 29.2614C115.043 29.3144 115.259 29.3409 115.497 29.3409C115.902 29.3409 116.238 29.2424 116.503 29.0455C116.772 28.8485 116.906 28.4924 116.906 27.9773V26.5H116.815C116.702 26.7955 116.527 27.0473 116.293 27.2557C116.058 27.4602 115.776 27.6174 115.446 27.7273C115.116 27.8333 114.755 27.8864 114.361 27.8864C113.74 27.8864 113.168 27.7424 112.645 27.4545C112.126 27.1667 111.709 26.7102 111.395 26.0852C111.084 25.4602 110.929 24.6439 110.929 23.6364C110.929 22.5833 111.092 21.7273 111.418 21.0682C111.747 20.4091 112.171 19.9261 112.69 19.6193C113.213 19.3125 113.762 19.1591 114.338 19.1591C114.77 19.1591 115.149 19.2348 115.474 19.3864C115.8 19.5341 116.073 19.733 116.293 19.983C116.512 20.2292 116.679 20.5 116.793 20.7955H116.861V19.2727H119.997V27.9773C119.997 28.7159 119.806 29.3428 119.423 29.858C119.045 30.3769 118.51 30.7727 117.821 31.0455C117.132 31.3182 116.327 31.4545 115.406 31.4545ZM115.52 25.6591C115.808 25.6591 116.054 25.5795 116.259 25.4205C116.467 25.2576 116.626 25.0265 116.736 24.7273C116.849 24.4242 116.906 24.0606 116.906 23.6364C116.906 23.2045 116.849 22.8352 116.736 22.5284C116.626 22.2178 116.467 21.9811 116.259 21.8182C116.054 21.6515 115.808 21.5682 115.52 21.5682C115.232 21.5682 114.986 21.6515 114.781 21.8182C114.58 21.9811 114.425 22.2178 114.315 22.5284C114.209 22.8352 114.156 23.2045 114.156 23.6364C114.156 24.0682 114.209 24.4356 114.315 24.7386C114.425 25.0379 114.58 25.267 114.781 25.4261C114.986 25.5814 115.232 25.6591 115.52 25.6591ZM131.621 16.3636H134.78V23.8182C134.78 24.7045 134.568 25.4716 134.143 26.1193C133.723 26.7633 133.136 27.2614 132.382 27.6136C131.628 27.9621 130.753 28.1364 129.757 28.1364C128.753 28.1364 127.875 27.9621 127.121 27.6136C126.367 27.2614 125.78 26.7633 125.359 26.1193C124.943 25.4716 124.734 24.7045 124.734 23.8182V16.3636H127.893V23.5455C127.893 23.9053 127.973 24.2273 128.132 24.5114C128.291 24.7917 128.511 25.0114 128.791 25.1705C129.075 25.3295 129.397 25.4091 129.757 25.4091C130.121 25.4091 130.443 25.3295 130.723 25.1705C131.003 25.0114 131.223 24.7917 131.382 24.5114C131.541 24.2273 131.621 23.9053 131.621 23.5455V16.3636ZM139.44 16.3636V28H136.281V16.3636H139.44Z" fill="black"/>
</g>
<defs>
<clipPath id="clip0_0_2011">
<rect width="93" height="24" fill="white" transform="translate(48 10)"/>
</clipPath>
</defs>
</svg>
